# xmcd
#
# Track frame offsets: 
#        150
#        22350
#        43800
#        54450
#        92475
#        110250
#        160350
#        176550
#        190500
#        203175
#        232850
#
# Disc length: 3605 seconds
#
# Revision: 0
# Processed by: cddbd v1.5.1PL0 Copyright (c) Steve Scherf et al.
# Submitted via: ExactAudioCopy v0.95a3
#
DISCID=8b0e130b
DTITLE=Various Artist - Zyx Soul Box CD 3
DYEAR=1900
DGENRE=Soul
TTITLE0=Booker T. and The M.G.'s - Time Is Tight
TTITLE1=The Temprees - I Love You, You Love Me
TTITLE2=Veda Brown - Short Stopping
TTITLE3=Isaac Hayes - Part Time Love
TTITLE4=Johnnie Taylor - We're Getting Careless With Our Love
TTITLE5=David Porter - Hang On Sloopy
TTITLE6=Mavis Staples - Since I Fell For You
TTITLE7=Eddie Floyd - Knock On Wood
TTITLE8=The Blackbyrds - Walking In Rhythm
TTITLE9=Delegation - Where's The Love (We Used To Know)
TTITLE10=The Bar Kays - Holy Ghost
EXTD=
EXTT0=
EXTT1=
EXTT2=
EXTT3=
EXTT4=
EXTT5=
EXTT6=
EXTT7=
EXTT8=
EXTT9=
EXTT10=
PLAYORDER=
